REM DIRINDEX 1\2,1\3,1\4
REM DIRNAME folder01,folder02,folder03,folder04
TITLE ""
FILE "Disk1Track37.mp3" MP3
  TRACK 01 AUDIO
    TITLE "2:cjc032_0234"
    INDEX 01 00:00:00
  TRACK 02 AUDIO
    TITLE "2:cjc032_0235"
    INDEX 01 00:05:38
  TRACK 03 AUDIO
    TITLE "2:cjc032_0236"
    INDEX 01 00:16:49
  TRACK 04 AUDIO
    TITLE "2:cjc032_0237"
    INDEX 01 00:30:50
  TRACK 05 AUDIO
    TITLE "0:"
    INDEX 01 00:43:68
